<?xml version="1.0" encoding="UTF-8" standalone="no"?>
<svg
   xmlns:dc="http://purl.org/dc/elements/1.1/"
   xmlns:cc="http://creativecommons.org/ns#"
   xmlns:rdf="http://www.w3.org/1999/02/22-rdf-syntax-ns#"
   xmlns:svg="http://www.w3.org/2000/svg"
   xmlns="http://www.w3.org/2000/svg"
   xmlns:sodipodi="http://sodipodi.sourceforge.net/DTD/sodipodi-0.dtd"
   xmlns:inkscape="http://www.inkscape.org/namespaces/inkscape"
   inkscape:version="1.0 (4035a4fb49, 2020-05-01)"
   sodipodi:docname="facebook.svg"
   id="svg6"
   version="1.1"
   width="25"
   viewBox="0 0 18.750001 18.750001"
   height="25">
  <metadata
     id="metadata12">
    <rdf:RDF>
      <cc:Work
         rdf:about="">
        <dc:format>image/svg+xml</dc:format>
        <dc:type
           rdf:resource="http://purl.org/dc/dcmitype/StillImage" />
        <dc:title></dc:title>
      </cc:Work>
    </rdf:RDF>
  </metadata>
  <defs
     id="defs10" />
  <sodipodi:namedview
     units="px"
     inkscape:current-layer="svg6"
     inkscape:window-maximized="1"
     inkscape:window-y="-8"
     inkscape:window-x="-8"
     inkscape:cy="99.939047"
     inkscape:cx="158.65317"
     inkscape:zoom="3.2723796"
     showgrid="false"
     id="namedview8"
     inkscape:window-height="987"
     inkscape:window-width="1680"
     inkscape:pageshadow="2"
     inkscape:pageopacity="0"
     guidetolerance="10"
     gridtolerance="10"
     objecttolerance="10"
     borderopacity="1"
     bordercolor="#666666"
     pagecolor="#ffffff" />
  <path
     style="stroke-width:0.0381305"
     id="path2"
     fill="#4267b2"
     d="M 17.699448,-0.04913867 H 0.33100332 C -0.2637449,-0.04879489 -0.74588684,0.43360022 -0.74573737,1.0284942 V 18.39694 c 3.4378e-4,0.594749 0.4827389,1.07689 1.07763276,1.076741 H 17.699448 c 0.595046,1.49e-4 1.077486,-0.482143 1.077635,-1.077187 0,-1.49e-4 0,-3.44e-4 0,-5.16e-4 V 1.0276019 c -3.44e-4,-0.59474816 -0.48274,-1.07689004 -1.077635,-1.07674057 z m 0,0" />
  <path
     style="stroke-width:0.0381305"
     id="path4"
     fill="#ffffff"
     d="M 12.733397,19.473681 V 11.92384 h 2.545212 L 15.659915,8.9687248 H 12.733397 V 7.086628 c 0,-0.8536179 0.236974,-1.4352565 1.461025,-1.4352565 h 1.551287 V 3.0154511 c -0.269895,-0.035892 -1.195901,-0.1161787 -2.273384,-0.1161787 -2.249699,0 -3.7893682,1.3726991 -3.7893682,3.8946745 V 8.9687248 H 7.1472783 V 11.92384 h 2.5356785 v 7.549841 z m 0,0" />
</svg>
