<?xml version="1.0" encoding="UTF-8" standalone="no"?>
<svg
   xmlns:dc="http://purl.org/dc/elements/1.1/"
   xmlns:cc="http://creativecommons.org/ns#"
   xmlns:rdf="http://www.w3.org/1999/02/22-rdf-syntax-ns#"
   xmlns:svg="http://www.w3.org/2000/svg"
   xmlns="http://www.w3.org/2000/svg"
   xmlns:sodipodi="http://sodipodi.sourceforge.net/DTD/sodipodi-0.dtd"
   xmlns:inkscape="http://www.inkscape.org/namespaces/inkscape"
   inkscape:version="1.0 (4035a4fb49, 2020-05-01)"
   sodipodi:docname="mail(1).svg"
   id="svg6"
   version="1.1"
   width="25"
   viewBox="0 0 18.750001 18.750001"
   height="25">
  <metadata
     id="metadata12">
    <rdf:RDF>
      <cc:Work
         rdf:about="">
        <dc:format>image/svg+xml</dc:format>
        <dc:type
           rdf:resource="http://purl.org/dc/dcmitype/StillImage" />
        <dc:title></dc:title>
      </cc:Work>
    </rdf:RDF>
  </metadata>
  <defs
     id="defs10" />
  <sodipodi:namedview
     units="px"
     inkscape:current-layer="svg6"
     inkscape:window-maximized="1"
     inkscape:window-y="-8"
     inkscape:window-x="-8"
     inkscape:cy="99.939047"
     inkscape:cx="158.65317"
     inkscape:zoom="3.2723796"
     showgrid="false"
     id="namedview8"
     inkscape:window-height="987"
     inkscape:window-width="1680"
     inkscape:pageshadow="2"
     inkscape:pageopacity="0"
     guidetolerance="10"
     gridtolerance="10"
     objecttolerance="10"
     borderopacity="1"
     bordercolor="#666666"
     pagecolor="#ffffff" />
  <g
     transform="matrix(0.06197798,0,0,0.06197798,-6.0418868,-6.8240382)"
     id="g102">
    <g
       id="g18">
	<g
   id="g16">
		<path
   d="M 458.667,85.333 H 53.333 C 23.936,85.333 0,109.269 0,138.667 v 234.667 c 0,29.397 23.936,53.333 53.333,53.333 h 405.333 c 29.397,0 53.333,-23.936 53.333,-53.333 V 138.667 C 512,109.269 488.064,85.333 458.667,85.333 Z m 32,288 c 0,17.643 -14.357,32 -32,32 H 53.333 c -17.643,0 -32,-14.357 -32,-32 V 138.667 c 0,-17.643 14.357,-32 32,-32 h 405.333 c 17.643,0 32,14.357 32,32 v 234.666 z"
   id="path14" />

	</g>

</g>
    <g
       id="g24">
	<g
   id="g22">
		<path
   d="m 467.456,132.651 c -3.307,-4.864 -9.941,-6.08 -14.827,-2.773 L 277.675,249.579 c -13.184,9.003 -30.208,9.003 -43.371,0 L 59.349,129.877 c -4.885,-3.349 -11.52,-2.091 -14.827,2.773 -3.307,4.864 -2.069,11.499 2.795,14.827 l 174.955,119.701 c 10.24,7.019 21.995,10.517 33.728,10.517 11.733,0 23.488,-3.499 33.728,-10.517 L 464.683,147.477 c 4.864,-3.328 6.101,-9.962 2.773,-14.826 z"
   id="path20" />

	</g>

</g>
    <g
       id="g30">
	<g
   id="g28">
		<path
   d="m 189.525,259.819 c -3.776,-4.501 -10.517,-5.12 -15.04,-1.365 l -128,106.667 c -4.523,3.776 -5.141,10.517 -1.365,15.04 2.112,2.539 5.141,3.84 8.213,3.84 2.411,0 4.843,-0.811 6.827,-2.475 l 128,-106.667 c 4.523,-3.776 5.141,-10.518 1.365,-15.04 z"
   id="path26" />

	</g>

</g>
    <g
       id="g36">
	<g
   id="g34">
		<path
   d="m 465.515,365.12 -128,-106.667 c -4.544,-3.755 -11.264,-3.136 -15.04,1.365 -3.776,4.544 -3.157,11.264 1.365,15.04 l 128,106.667 c 2.005,1.664 4.416,2.475 6.827,2.475 3.051,0 6.08,-1.301 8.213,-3.84 3.776,-4.544 3.157,-11.264 -1.365,-15.04 z"
   id="path32" />

	</g>

</g>
    <g
       id="g38">
</g>
    <g
       id="g40">
</g>
    <g
       id="g42">
</g>
    <g
       id="g44">
</g>
    <g
       id="g46">
</g>
    <g
       id="g48">
</g>
    <g
       id="g50">
</g>
    <g
       id="g52">
</g>
    <g
       id="g54">
</g>
    <g
       id="g56">
</g>
    <g
       id="g58">
</g>
    <g
       id="g60">
</g>
    <g
       id="g62">
</g>
    <g
       id="g64">
</g>
    <g
       id="g66">
</g>
  </g>
</svg>
