<?xml version="1.0" encoding="UTF-8" standalone="no"?>
<svg
   xmlns:dc="http://purl.org/dc/elements/1.1/"
   xmlns:cc="http://creativecommons.org/ns#"
   xmlns:rdf="http://www.w3.org/1999/02/22-rdf-syntax-ns#"
   xmlns:svg="http://www.w3.org/2000/svg"
   xmlns="http://www.w3.org/2000/svg"
   xmlns:sodipodi="http://sodipodi.sourceforge.net/DTD/sodipodi-0.dtd"
   xmlns:inkscape="http://www.inkscape.org/namespaces/inkscape"
   inkscape:version="1.0 (4035a4fb49, 2020-05-01)"
   sodipodi:docname="print.svg"
   id="svg6"
   version="1.1"
   width="25"
   viewBox="0 0 18.750001 18.750001"
   height="25">
  <metadata
     id="metadata12">
    <rdf:RDF>
      <cc:Work
         rdf:about="">
        <dc:format>image/svg+xml</dc:format>
        <dc:type
           rdf:resource="http://purl.org/dc/dcmitype/StillImage" />
        <dc:title></dc:title>
      </cc:Work>
    </rdf:RDF>
  </metadata>
  <defs
     id="defs10" />
  <sodipodi:namedview
     units="px"
     inkscape:current-layer="svg6"
     inkscape:window-maximized="1"
     inkscape:window-y="-8"
     inkscape:window-x="-8"
     inkscape:cy="99.939047"
     inkscape:cx="158.65317"
     inkscape:zoom="3.2723796"
     showgrid="false"
     id="namedview8"
     inkscape:window-height="987"
     inkscape:window-width="1680"
     inkscape:pageshadow="2"
     inkscape:pageopacity="0"
     guidetolerance="10"
     gridtolerance="10"
     objecttolerance="10"
     borderopacity="1"
     bordercolor="#666666"
     pagecolor="#ffffff" />
  <g
     transform="matrix(0.03601678,0,0,0.03601678,0.16614697,0.74971189)"
     id="g192">
    <g
       id="g108">
	<g
   id="g106">
		<path
   d="M 450.803,171.748 H 409.701 V 87.242 c 0,-4.199 -3.405,-7.604 -7.604,-7.604 h -25.51 V 7.604 C 376.587,3.405 373.182,0 368.983,0 H 143.009 c -4.199,0 -7.604,3.405 -7.604,7.604 v 72.034 h -25.513 c -4.199,0 -7.604,3.405 -7.604,7.604 v 84.505 H 61.197 C 27.399,171.748 0,199.146 0,232.944 v 182.629 c 0,4.199 3.405,7.604 7.604,7.604 h 14.204 v 24.525 c 0,4.199 3.405,7.604 7.604,7.604 h 76.061 l -9.825,24.333 c -0.655,1.623 -0.836,3.43 -0.348,5.111 0.981,3.375 4.01,5.532 7.322,5.532 h 25.124 c 4.199,0 7.604,-3.405 7.604,-7.604 0,-4.199 -3.405,-7.604 -7.604,-7.604 h -13.855 l 38.685,-95.803 h 206.839 l 38.685,95.803 h -69.871 -144.467 -20.53 c -4.199,0 -7.604,3.405 -7.604,7.604 0,4.199 3.405,7.604 7.604,7.604 h 13.93 c 3.36,12.494 14.779,21.719 28.318,21.719 h 101.031 c 13.539,0 24.958,-9.225 28.316,-21.719 h 74.336 c 1.751,0 3.495,-0.509 4.871,-1.592 2.762,-2.175 3.627,-5.789 2.388,-8.859 l -9.902,-24.524 h 76.068 c 4.199,0 7.604,-3.405 7.604,-7.604 v -24.525 h 14.204 c 4.199,0 7.604,-3.405 7.604,-7.604 v -182.63 c 0,-33.798 -27.399,-61.196 -61.197,-61.196 z M 306.513,496.793 H 205.481 c -4.985,0 -9.375,-2.599 -11.887,-6.511 h 124.804 c -2.511,3.913 -6.901,6.511 -11.885,6.511 z M 376.588,94.846 h 17.906 v 76.901 H 376.588 Z M 150.613,15.208 H 361.38 V 171.747 H 150.613 Z m -33.117,79.638 h 17.909 v 76.901 h -17.909 z m -5.881,345.252 H 37.016 v -16.921 h 81.431 z m 363.369,0 h -74.605 l -6.832,-16.921 h 81.437 z m 21.808,-32.129 h -14.204 -95.182 l -11.588,-28.698 h 9.79 c 4.199,0 7.604,-3.405 7.604,-7.604 0,-4.199 -3.405,-7.604 -7.604,-7.604 h -21.061 -217.1 -21.061 c -4.199,0 -7.604,3.405 -7.604,7.604 0,4.199 3.405,7.604 7.604,7.604 h 9.79 l -11.588,28.698 H 29.412 15.208 V 232.944 c 0,-25.359 20.63,-45.989 45.989,-45.989 H 109.893 143 c 0.003,0 0.006,0 0.01,0 h 225.974 c 0.003,0 0.006,0 0.01,0 h 33.104 48.706 c 25.359,0 45.989,20.63 45.989,45.989 v 175.025 z"
   id="path104" />

	</g>

</g>
    <g
       id="g114">
	<g
   id="g112">
		<path
   d="m 458.239,231.723 c -0.419,-11.11 -9.9,-19.738 -21.017,-19.738 h -67.16 c -4.199,0 -7.604,3.405 -7.604,7.604 0,4.199 3.405,7.604 7.604,7.604 h 67.428 c 2.778,0 5.263,2.026 5.533,4.791 0.309,3.172 -2.186,5.854 -5.295,5.854 H 74.512 c -2.778,0 -5.263,-2.026 -5.533,-4.79 -0.309,-3.172 2.186,-5.854 5.295,-5.854 h 260.3 c 4.199,0 7.604,-3.405 7.604,-7.604 0,-4.199 -3.405,-7.604 -7.604,-7.604 H 74.778 c -11.118,0 -20.599,8.628 -21.019,19.738 -0.442,11.68 8.931,21.323 20.514,21.323 h 363.451 c 11.584,-0.002 20.957,-9.645 20.515,-21.324 z"
   id="path110" />

	</g>

</g>
    <g
       id="g120">
	<g
   id="g118">
		<path
   d="M 89.481,261.663 H 74.273 c -11.321,0 -20.53,9.21 -20.53,20.53 0,11.32 9.209,20.531 20.53,20.531 h 15.208 c 11.321,0 20.531,-9.21 20.531,-20.531 0,-11.321 -9.21,-20.53 -20.531,-20.53 z m 0,25.852 H 74.273 c -2.935,0 -5.322,-2.388 -5.322,-5.323 0,-2.935 2.387,-5.322 5.322,-5.322 h 15.208 c 2.935,0 5.323,2.388 5.323,5.322 0,2.935 -2.387,5.323 -5.323,5.323 z"
   id="path116" />

	</g>

</g>
    <g
       id="g126">
	<g
   id="g124">
		<path
   d="m 157.272,261.663 h -15.208 c -11.321,0 -20.531,9.21 -20.531,20.53 0,11.32 9.21,20.531 20.531,20.531 h 15.208 c 11.321,0 20.53,-9.21 20.53,-20.531 0,-11.321 -9.209,-20.53 -20.53,-20.53 z m 0,25.852 h -15.208 c -2.935,0 -5.323,-2.388 -5.323,-5.323 0,-2.935 2.388,-5.322 5.323,-5.322 h 15.208 c 2.935,0 5.322,2.388 5.322,5.322 0,2.935 -2.387,5.323 -5.322,5.323 z"
   id="path122" />

	</g>

</g>
    <g
       id="g128">
</g>
    <g
       id="g130">
</g>
    <g
       id="g132">
</g>
    <g
       id="g134">
</g>
    <g
       id="g136">
</g>
    <g
       id="g138">
</g>
    <g
       id="g140">
</g>
    <g
       id="g142">
</g>
    <g
       id="g144">
</g>
    <g
       id="g146">
</g>
    <g
       id="g148">
</g>
    <g
       id="g150">
</g>
    <g
       id="g152">
</g>
    <g
       id="g154">
</g>
    <g
       id="g156">
</g>
  </g>
</svg>
